# xmcd CD database file
#
# Track frame offsets:
#	150
#	21895
#	55740
#	73853
#	94048
#	129238
#	154576
#
# Disc length: 2324 seconds
#
# Revision: 0
# Processed by: cddbd v1.5.2PL0 Copyright (c) Steve Scherf et al.
# Submitted via: CDex 1.51
#
DISCID=52091207
DTITLE=Dave Milligan Trio - Shops
DYEAR=2008
DGENRE=Jazz
TTITLE0=Duncan's
TTITLE1=If You Need A Painting In An Emergency
TTITLE2=Tobermory Story
TTITLE3=Browns
TTITLE4=Tackle and Books
TTITLE5=Catriona's
TTITLE6=Closing
EXTD=YEAR: 2008
EXTT0=
EXTT1=
EXTT2=
EXTT3=
EXTT4=
EXTT5=
EXTT6=
PLAYORDER=
